<svg width="20" height="20" viewBox="0 0 20 20" fill="none" xmlns="http://www.w3.org/2000/svg">
<path fill-rule="evenodd" clip-rule="evenodd" d="M18.9992 3.11417C19.0087 3.75263 18.9333 4.5542 18.8658 5.13758C18.8395 5.36512 18.8037 5.55448 18.7653 5.71003C19.6227 7.37895 20 9.38674 20 11.5789C20 14.1773 18.8127 16.3168 16.9638 17.7759C15.1319 19.2216 12.6606 20 10 20C7.33939 20 4.86809 19.2216 3.0362 17.7759C1.18727 16.3168 0 14.1773 0 11.5789C0 9.38674 0.37732 7.37895 1.23472 5.71002C1.19631 5.55448 1.16055 5.36511 1.13422 5.13758C1.06673 4.5542 0.99133 3.75263 1.00081 3.11417C1.01149 2.3948 1.10082 1.67547 1.19988 0.961883C1.24569 0.631873 1.31843 0.321546 1.65883 0.125441C2.00655 -0.0748854 2.37274 -0.000201236 2.73398 0.107472C3.95247 0.470662 5.09487 0.980083 6.16803 1.59249C7.2995 1.2346 8.5783 1.05263 10 1.05263C11.4217 1.05263 12.7005 1.2346 13.832 1.59249C14.9051 0.980083 16.0475 0.470662 17.266 0.107472C17.6273 -0.000201236 17.9935 -0.0748854 18.3412 0.125441C18.6816 0.321546 18.7543 0.631873 18.8001 0.961883C18.8992 1.67547 18.9885 2.3948 18.9992 3.11417ZM18 11.5789C18 9.80295 17.6122 7.36842 15.5 7.36842C14.5478 7.36842 13.6474 7.63179 12.7474 7.89516C11.8482 8.1581 10.9495 8.42105 10 8.42105C9.0505 8.42105 8.1518 8.1581 7.25263 7.89516C6.35261 7.63179 5.45216 7.36842 4.5 7.36842C2.39379 7.36842 2 9.81021 2 11.5789C2 13.4354 2.82745 14.98 4.23588 16.0915C5.66135 17.2164 7.69005 17.8947 10 17.8947C12.3099 17.8947 14.3386 17.2163 15.7641 16.0915C17.1726 14.98 18 13.4354 18 11.5789ZM8 12.1053C8 13.5586 7.32843 14.7368 6.5 14.7368C5.67157 14.7368 5 13.5586 5 12.1053C5 10.6519 5.67157 9.47368 6.5 9.47368C7.32843 9.47368 8 10.6519 8 12.1053ZM13.5 14.7368C14.3284 14.7368 15 13.5586 15 12.1053C15 10.6519 14.3284 9.47368 13.5 9.47368C12.6716 9.47368 12 10.6519 12 12.1053C12 13.5586 12.6716 14.7368 13.5 14.7368Z" fill="#E84A4A"/>
</svg>
